<svg xmlns="http://www.w3.org/2000/svg" xmlns:xlink="http://www.w3.org/1999/xlink" version="1.1" id="Layer_1" x="0" y="0" width="100" height="100" viewBox="0 0 100 100" enable-background="new 0 0 100 100" xml:space="preserve">
  <path fill-rule="evenodd" clip-rule="evenodd" fill="#383838" d="M0.01 50.7C-0.43 23.02 21.91 0.08 49.91 0 77.46-0.08 99.89 22.2 100 49.83c0.11 27.58-22.09 49.8-49.3 50.16C22.84 100.37 0.32 78.01 0.01 50.7zM47.21 42.06c0 0 0 0 0 0.01 3.6 0 7.19 0 10.79 0 1.3 0 2.2 0.7 2.73 1.82 0.54 1.14 0.38 2.25-0.42 3.26 -0.78 1-1.92 1.28-3.07 1.3 -2.99 0.06-5.97 0-8.96 0.03 -1.28 0.01-2.6-0.04-3.85 0.19 -4.59 0.88-8.47 3.06-11.58 6.58 -2.67 3.02-4.31 6.55-4.82 10.53 -0.27 2.12-0.17 4.28-0.18 6.42 0 0.59 0.11 1.19 0.25 1.77 1.05 4.45 5.65 7.33 10.43 6.1 3.23-0.82 5.81-3.58 6.16-6.78 0.17-1.52 0.14-3.07 0.16-4.61 0.04-2.27 1.88-4.23 4.15-4.27 3.16-0.05 6.33 0.04 9.49-0.06 1.69-0.05 3.42-0.19 5.06-0.58 8.74-2.12 14.83-9.77 14.99-18.77 0.05-2.85-0.47-5.62-1.66-8.24 -2.16-4.75-5.63-8.19-10.45-10.22 -0.96-0.41-1.88-0.32-2.7 0.31 -1.65 1.26-1.32 3.87 0.86 4.77 5.68 2.36 9.47 8.58 8.41 15.27 -0.47 2.95-1.73 5.48-3.77 7.64 -2.95 3.11-6.65 4.5-10.86 4.56 -3.29 0.05-6.58 0.01-9.87 0.01 -0.28 0-0.56-0.01-0.83 0.04 -4.92 0.83-8.29 5.19-8.11 9.57 0.05 1.28-0.01 2.58-0.15 3.85 -0.14 1.29-1.4 2.44-2.99 2.48 -1.61 0.03-2.91-1.15-3.07-2.39 -0.35-2.63-0.32-5.27 0.38-7.85 1.83-6.69 7.74-11.09 14.6-11.15 3.32-0.03 6.63 0.01 9.95-0.02 0.59 0 1.2-0.08 1.77-0.25 3.59-1.04 5.75-3.37 6.27-7.12 0.43-3.1-0.65-5.64-3-7.64 -1.71-1.46-3.75-1.96-5.96-1.95 -6.78 0.01-13.57 0-20.36 0 -0.38 0-0.76 0-1.14-0.04 -1.44-0.13-2.84-1.83-2.68-3.25 0.2-1.78 1.55-2.98 3.38-2.98 6.53 0 13.07-0.02 19.6 0.01 1.33 0.01 2.88-1.06 2.73-2.82 -0.13-1.48-1.11-2.51-2.71-2.51 -6.66 0-13.32 0-19.98 0.01 -0.6 0-1.21 0.04-1.79 0.18 -6.27 1.54-8.41 8.7-4.82 13.43 1.77 2.34 4.22 3.35 7.1 3.37C40.17 42.08 43.69 42.06 47.21 42.06z"/>
</svg>
